<svg xmlns="http://www.w3.org/2000/svg" version="1.1" xmlns:xlink="http://www.w3.org/1999/xlink" xmlns:svgjs="http://svgjs.dev/svgjs" width="1000" height="1000" viewBox="0 0 1000 1000"><rect width="1000" height="1000" fill="#ffffff"></rect><g transform="matrix(0.7,0,0,0.7,150.0000000000001,106.25)"><svg viewBox="0 0 320 360" data-background-color="#ffffff" preserveAspectRatio="xMidYMid meet" height="1125" width="1000" xmlns="http://www.w3.org/2000/svg" xmlns:xlink="http://www.w3.org/1999/xlink"><defs></defs><g id="tight-bounds" transform="matrix(1,0,0,1,0,0)"><svg viewBox="0 0 320 360" height="360" width="320"><g><svg></svg></g><g><svg viewBox="0 0 320 360" height="360" width="320"><g><path d="M20.961 227.22l3.726 4.658-1.863-6.056c-0.466-2.795-3.726 0.466-1.863 1.398M25.153 224.425c1.397 2.329 2.795 4.658 2.795 6.987 0 3.261 2.795 4.658 5.123 5.589-3.261-3.726-5.124-13.974-7.918-12.576M204.017 26.929c7.918 0 15.371-0.932 23.756 0.931 20.495 5.124 37.729 15.371 49.374 29.811l32.606 52.169c1.397 13.042 4.192 27.482 3.726 43.319 3.261 0 2.795-4.658 6.521-5.59-3.726 9.316-5.59 20.961-6.521 34.469-2.329-7.453 0-18.632 0.466-24.687-3.261 5.124-5.124 1.397-5.124-0.932 0.466-3.726-1.397-3.261-2.795-4.658-5.124-4.658-8.384-9.782-12.11-17.7 2.329-6.055 2.795-14.905-4.658-19.563-2.329-1.397-5.124-3.726-6.521-7.453-1.863-5.124-5.124-11.179-4.193-19.097 0.466-2.329-6.987 5.124-11.179 1.863-18.166-12.576-36.332-27.016-58.224-39.127-11.645 0-20.029-4.192-24.221-9.316-3.726-4.658-0.932-10.713 4.658-11.179 3.261 0 6.987-0.932 9.782 0.932 0.466-1.863 2.329-4.192 4.657-4.192M157.904 16.215l0.932 0.466c4.658 0.932 6.987 7.453 12.11 5.124 0 3.261 0.466 6.521-0.466 8.85-1.397 3.726-5.59 3.726-8.85 3.726-31.208-1.863-49.374 11.179-68.471 22.358-5.124 3.261-10.713 5.59-14.906 9.782-20.029 18.632-41.921 35.866-47.045 70.335l-4.192 38.195c-0.466 4.192-5.124 8.384-4.192 13.508l3.26 22.824c-3.261-3.261-5.124 0.932-4.192 2.795 0.466 1.397 2.329 6.055 5.124 1.863 3.726 6.987 7.453 20.495 12.576 26.55 15.837 18.632 36.332 35.4 53.101 52.169 4.192-0.932 7.453-0.932 8.384-3.727 1.397 2.795-1.397 5.59-3.726 6.056 7.453 4.658 15.837 8.85 27.016 9.781 14.44 0.932 27.948 3.261 40.524 6.522 6.521-1.863 13.042-2.795 20.029-3.261 2.329 0 3.726-3.726 6.521-4.658l0.466-4.658c2.795 4.192 2.329-1.397 0.466-4.192 3.261 2.795 4.192 5.124 5.589 6.987 0-1.397 3.726-6.521 3.727-0.466l0.931-6.055c1.397-0.932 1.863 5.124 3.261 0.931 1.397-4.192 4.192-0.932 6.987-2.329-0.932 1.863-0.466 5.59 2.794 3.261l3.727-3.261c2.329 5.59 6.055 3.261 7.918 2.329 20.495-13.042 40.99-28.413 60.553-43.784l-0.466 6.055 2.329-7.453c2.329 2.329 4.192 0.466 5.124-0.931 2.795-4.658 6.521-9.316 12.577-13.508-7.453 20.029-16.303 35.866-27.482 48.908l-4.658 5.59c0 3.261-0.932 7.453-4.658 7.918-1.863 0.466-5.59-0.932-8.384 1.863-1.397 1.863 3.261 5.59-0.466 2.795-3.261-2.329-6.521 0-10.248 0.932-2.795 0.932 1.863 3.726 2.795 5.589 0.932 1.863 1.863 3.726 1.398 6.056l-5.124-5.59c-6.055 3.261-9.782 9.316-14.906 13.974-2.329 1.863-1.397 5.124-1.397 7.918-3.261 0-6.987-0.932-8.85 0.932-1.397 1.863-0.932 4.658-0.932 7.453-4.658-0.466-5.124-7.453-9.315-6.056-4.192 0.932-8.85 1.397-12.577 3.727 2.795 5.59-4.658 2.329-3.726 3.26-6.987-4.192-13.042-7.453-20.495-4.658-15.837-5.124-35.4-2.795-49.84-0.931 0-2.329 0.466-4.658-0.466-5.124-0.932 2.329-3.726 1.397-3.26 1.397-8.85-6.055-17.7-9.782-27.016-14.905-8.384 0.932-16.303-3.261-18.632-5.59-6.521-6.055-13.974-2.795-20.029-4.192-13.042-3.261-17.7-16.769-19.098-26.084-0.932-4.658-4.658-6.521-6.055-6.056-6.055-19.563-15.371-37.263-22.824-55.429-1.863-4.658-1.397-9.316-1.397-14.44 2.329 0.932 4.658 0.466 4.192-2.794-2.329-15.371-7.918-27.016-13.974-38.195 3.261-15.837 3.726-34.469 11.179-48.443 6.521-12.576 18.632-19.098 27.016-29.811 2.795-3.726 2.795-8.85 5.59-12.11 9.316-9.316 18.632-19.098 28.879-27.482 4.658-3.726 10.247 0 17.234-1.397 2.329-8.384 11.645-15.837 20.495-13.508 3.726 0.932 11.179-8.85 13.508-9.782 3.726-1.397 1.863 3.726 1.863 6.987 8.85-6.987 20.961-10.713 32.14-14.906" fill="#551e19" data-fill-palette-color="tertiary"></path></g><g transform="matrix(1,0,0,1,64,98.1275650106486)"><svg viewBox="0 0 192 163.7448699787028" height="163.7448699787028" width="192"><g><svg viewBox="0 0 192 163.7448699787028" height="163.7448699787028" width="192"><g><svg viewBox="0 0 192 163.7448699787028" height="163.7448699787028" width="192"><g transform="matrix(1,0,0,1,0,98.97042660987415)"><svg viewBox="0 0 192 64.77444336882866" height="64.77444336882866" width="192"><g><svg viewBox="0 0 192 64.77444336882866" height="64.77444336882866" width="192"><g><svg viewBox="0 0 192 64.77444336882866" height="64.77444336882866" width="192"><g transform="matrix(1,0,0,1,0,0)"><svg width="192" viewBox="0.9500000476837158 -33.5 103.29000091552734 34.849998474121094" height="64.77444336882866" data-palette-color="#551e19"><path d="M12.8 1.05Q6.85 1.05 3.9-2.8 0.95-6.65 0.95-13.25L0.95-13.25Q0.95-18.7 3.3-23.35 5.65-28 9.85-30.75 14.05-33.5 19.3-33.5L19.3-33.5Q24.4-33.5 27.48-30.03 30.55-26.55 30.55-19.65L30.55-19.65Q30.55-14.75 28.28-9.93 26-5.1 21.95-2.02 17.9 1.05 12.8 1.05L12.8 1.05ZM13.5-3.45Q15.95-3.45 18.3-6.2 20.65-8.95 22.13-13.25 23.6-17.55 23.6-22L23.6-22Q23.6-25.4 22.48-26.93 21.35-28.45 18.5-28.45L18.5-28.45Q15.35-28.45 12.9-25.7 10.45-22.95 9.1-18.85 7.75-14.75 7.75-10.9L7.75-10.9Q7.75-8.65 8.58-6.95 9.4-5.25 10.73-4.35 12.05-3.45 13.5-3.45L13.5-3.45ZM49.9-19.35Q49.3-19.65 48.4-19.65L48.4-19.65Q46.15-19.65 43.9-18.75 41.65-17.85 41.65-16.45L41.65-16.45Q41.65-15.45 42.55-14.85 43.45-14.25 45.4-13.5L45.4-13.5Q47.5-12.65 48.8-11.9 50.1-11.15 51.07-9.73 52.05-8.3 52.05-6.1L52.05-6.1Q52.05-2.5 49.07-0.58 46.1 1.35 41.1 1.35L41.1 1.35Q38.65 1.35 36.55 0.6 34.45-0.15 33.22-1.33 32-2.5 31.9-3.65L31.9-3.65Q31.9-4.85 32.95-5.63 34-6.4 35.9-6.65L35.9-6.65Q35.95-5.65 36.95-4.78 37.95-3.9 39.32-3.38 40.7-2.85 41.7-2.85L41.7-2.85Q43.4-2.85 44.8-3.78 46.2-4.7 46.2-5.95L46.2-5.95Q46.2-8.25 41.75-9.6L41.75-9.6Q38.9-10.45 37.37-12.3 35.85-14.15 35.85-16.2L35.85-16.2Q35.85-20.25 39.52-22.03 43.2-23.8 48.9-23.8L48.9-23.8Q52.1-23.8 53.85-23.05 55.6-22.3 55.6-20.45L55.6-20.45Q55.6-19.2 54.67-18.25 53.75-17.3 52.05-17.3L52.05-17.3Q50.55-17.3 50.12-17.53 49.7-17.75 49.65-18.3L49.65-18.3Q49.65-18.8 49.9-19.35L49.9-19.35ZM78.2-5.9Q77.59-4.3 75.84-2.68 74.09-1.05 71.4 0 68.7 1.05 65.5 1.05L65.5 1.05Q60.6 1.05 58.25-0.98 55.9-3 55.9-6.25L55.9-6.25Q55.9-10.95 58.3-14.98 60.7-19 64.75-21.35 68.8-23.7 73.4-23.7L73.4-23.7Q76.25-23.7 78.12-22.03 80-20.35 80-17.5L80-17.5Q80-16.4 79.09-15.68 78.2-14.95 76.7-14.95L76.7-14.95Q75.5-14.95 75.07-15.5 74.65-16.05 74.65-16.95L74.65-16.95 74.7-18.1Q74.7-18.7 74.05-19.07 73.4-19.45 72.65-19.45L72.65-19.45Q71.09-19.45 68.47-17.6 65.84-15.75 63.87-12.73 61.9-9.7 61.9-6.25L61.9-6.25Q61.9-4.85 63-4.1 64.09-3.35 66.25-3.35L66.25-3.35Q67.59-3.35 69.34-3.9 71.09-4.45 71.55-5.3L71.55-5.3Q73.25-8.4 74.65-8.4L74.65-8.4Q76.7-8.4 77.42-7.63 78.15-6.85 78.2-5.9L78.2-5.9ZM100.44-2.6Q100.54-1.3 100.79-0.25L100.79-0.25Q100.69 0.05 99.92 0.35 99.14 0.65 98.59 0.65L98.59 0.65Q96.79 0.65 96.02 0.13 95.24-0.4 95.24-1.45L95.24-1.45Q95.24-2.45 95.44-3.45L95.44-3.45Q94.34-1.95 92.22-0.98 90.09 0 88.79 0L88.79 0Q85.44 0 83.22-1.95 80.99-3.9 80.99-8.2L80.99-8.2Q80.99-12.25 82.92-15.83 84.84-19.4 88.24-21.58 91.64-23.75 95.79-23.75L95.79-23.75Q96.59-23.75 97.89-23.33 99.19-22.9 100.52-21.88 101.84-20.85 102.74-19.25L102.74-19.25Q103.14-19.25 103.69-18.85 104.24-18.45 104.24-18.05L104.24-18.05Q104.24-17.6 104.09-17.15L104.09-17.15 100.44-2.6ZM98.19-16.6Q97.89-17.7 97.02-18.45 96.14-19.2 95.44-19.2L95.44-19.2Q93.14-19.2 91.12-17.57 89.09-15.95 87.84-13.55 86.59-11.15 86.59-9L86.59-9Q86.59-6.9 87.09-5.55 87.59-4.2 89.04-4.2L89.04-4.2Q90.29-4.2 91.92-4.95 93.54-5.7 94.82-6.98 96.09-8.25 96.49-9.65L96.49-9.65 98.19-16.6Z" opacity="1" transform="matrix(1,0,0,1,0,0)" fill="#000000" class="undefined-text-0" data-fill-palette-color="primary" id="text-0"></path></svg></g></svg></g></svg></g></svg></g><g transform="matrix(1,0,0,1,57.45243026669575,0)"><svg viewBox="0 0 77.0951394666085 89.5182807357212" height="89.5182807357212" width="77.0951394666085"><g><svg xmlns="http://www.w3.org/2000/svg" xmlns:xlink="http://www.w3.org/1999/xlink" version="1.1" x="0" y="0" viewBox="24.595703125 20.50213623046875 50.80859375 58.99591064453125" enable-background="new 0 0 100 100" xml:space="preserve" height="89.5182807357212" width="77.0951394666085" class="icon-icon-0" data-fill-palette-color="accent" id="icon-0"><g fill="#c56e33" data-fill-palette-color="accent"><path fill="#000000" d="M47.29 57.671c0.336-0.537 0.538-1.166 0.539-1.845 0-1.93-1.57-3.5-3.5-3.5-1.93 0-3.5 1.57-3.501 3.5 0 0.676 0.202 1.303 0.535 1.839l-1.184 7.647c-0.046 0.301 0.093 0.6 0.354 0.756 1.259 0.76 2.527 1.14 3.795 1.14 1.268 0 2.537-0.38 3.796-1.14 0.261-0.157 0.401-0.457 0.354-0.757L47.29 57.671zM44.329 53.826c1.103 0 2 0.897 2 2s-0.897 2-2 2-2-0.897-2.001-2S43.226 53.826 44.329 53.826zM41.741 65.027l0.949-6.127c0.491 0.263 1.044 0.426 1.639 0.426 0.594 0 1.145-0.163 1.635-0.424l0.952 6.125C45.18 65.93 43.478 65.929 41.741 65.027z" data-fill-palette-color="accent"></path><path fill="#000000" d="M75.404 41.815c0-7.238-5.888-13.126-13.126-13.126-2.742 0-5.288 0.848-7.396 2.291-0.022-2.879-1.232-5.654-3.335-7.625-2.152-2.017-4.968-3.021-7.92-2.83-5.527 0.358-9.856 5.133-9.856 10.871v8.636h-4.473c-2.593 0-4.703 2.109-4.702 4.703v30.06c0 2.593 2.109 4.703 4.702 4.703h30.061c2.593 0 4.703-2.109 4.703-4.703V54.805C70.457 53.931 75.404 48.446 75.404 41.815zM62.278 53.441c-6.411 0-11.626-5.215-11.626-11.626s5.215-11.626 11.626-11.626 11.626 5.215 11.626 11.626S68.689 53.441 62.278 53.441zM35.271 31.396c0-4.949 3.713-9.067 8.453-9.374 2.537-0.162 4.952 0.698 6.797 2.428 1.847 1.732 2.865 4.079 2.865 6.61v1.128c-2.183 2.017-3.676 4.759-4.098 7.844H35.271V31.396zM62.562 74.795c0 1.766-1.437 3.203-3.203 3.203H29.298c-1.766 0-3.203-1.437-3.202-3.203V44.735c0-1.766 1.437-3.203 3.202-3.203H49.167c-0.002 0.095-0.014 0.187-0.015 0.283 0 7.238 5.888 13.126 13.126 13.126 0.096 0 0.188-0.012 0.284-0.014V74.795z" data-fill-palette-color="accent"></path><path fill="#000000" d="M68.936 38.11c0.287-0.299 0.276-0.774-0.023-1.061-0.3-0.287-0.774-0.277-1.06 0.023l-8.572 8.942-2.951-3.492c-0.267-0.316-0.74-0.356-1.057-0.089-0.316 0.267-0.356 0.74-0.088 1.057l3.488 4.128c0.137 0.163 0.337 0.259 0.549 0.266 0.008 0 0.016 0 0.024 0 0.204 0 0.4-0.083 0.541-0.231L68.936 38.11z" data-fill-palette-color="accent"></path></g></svg></g></svg></g><g></g></svg></g></svg></g></svg></g></svg></g></svg><rect width="320" height="360" fill="none" stroke="none" visibility="hidden"></rect></g></svg></g></svg>